<svg width="24" height="24" viewBox="0 0 24 24" fill="none" xmlns="http://www.w3.org/2000/svg">
<path d="M18.066 2H11V7C11 7.53043 10.7893 8.03914 10.4142 8.41421C10.0391 8.78929 9.53042 9 8.99999 9H3.99999V20C3.99196 20.5215 4.19104 21.0248 4.55359 21.3998C4.91613 21.7747 5.41254 21.9905 5.93399 22H18.066C18.5874 21.9905 19.0839 21.7747 19.4464 21.3998C19.8089 21.0248 20.008 20.5215 20 20V4C20.008 3.47853 19.8089 2.97515 19.4464 2.60024C19.0839 2.22532 18.5874 2.00947 18.066 2ZM15.066 17H8.82799C8.56277 17 8.30842 16.8946 8.12088 16.7071C7.93335 16.5196 7.82799 16.2652 7.82799 16C7.82799 15.7348 7.93335 15.4804 8.12088 15.2929C8.30842 15.1054 8.56277 15 8.82799 15H15.066C15.3312 15 15.5856 15.1054 15.7731 15.2929C15.9606 15.4804 16.066 15.7348 16.066 16C16.066 16.2652 15.9606 16.5196 15.7731 16.7071C15.5856 16.8946 15.3312 17 15.066 17ZM15.066 13H8.82799C8.56277 13 8.30842 12.8946 8.12088 12.7071C7.93335 12.5196 7.82799 12.2652 7.82799 12C7.82799 11.7348 7.93335 11.4804 8.12088 11.2929C8.30842 11.1054 8.56277 11 8.82799 11H15.066C15.3312 11 15.5856 11.1054 15.7731 11.2929C15.9606 11.4804 16.066 11.7348 16.066 12C16.066 12.2652 15.9606 12.5196 15.7731 12.7071C15.5856 12.8946 15.3312 13 15.066 13Z" fill="#2F2F38"/>
<path d="M8.99999 7V2.13C8.51203 2.26498 8.06684 2.52286 7.70699 2.879L4.87899 5.707C4.52356 6.06739 4.26579 6.51238 4.12999 7H8.99999Z" fill="#2F2F38"/>
</svg>
