<svg width="24" height="24" viewBox="0 0 24 24" fill="none" xmlns="http://www.w3.org/2000/svg">
<path d="M8.82803 12H15.067M8.82803 16H15.067M10 3V7C10 7.26522 9.89467 7.51957 9.70714 7.70711C9.5196 7.89464 9.26525 8 9.00003 8H5.00003M19 4V20C19.0084 20.2562 18.9149 20.5053 18.7401 20.6927C18.5652 20.8801 18.3232 20.9906 18.067 21H5.93303C5.67687 20.9906 5.43487 20.8801 5.26 20.6927C5.08514 20.5053 4.99166 20.2562 5.00003 20V7.828C5.00014 7.29761 5.21093 6.78899 5.58603 6.414L8.41403 3.586C8.78901 3.2109 9.29764 3.00011 9.82803 3H18.067C18.3232 3.00939 18.5652 3.11989 18.7401 3.30731C18.9149 3.49473 19.0084 3.74381 19 4Z" stroke="#2F2F38" stroke-linecap="round" stroke-linejoin="round"/>
</svg>
