<svg width="24" height="24" viewBox="0 0 24 24" fill="none" xmlns="http://www.w3.org/2000/svg">
<path d="M19.947 5.053C19.4507 4.55521 18.8588 4.16302 18.207 3.90008C17.5551 3.63713 16.8568 3.50886 16.154 3.523C14.5982 3.59488 13.1217 4.23042 12 5.311C10.8727 4.22237 9.38915 3.579 7.824 3.5C7.12065 3.48327 6.42122 3.60945 5.76805 3.87089C5.11488 4.13233 4.52156 4.52359 4.024 5.021C2.109 6.937 1.709 10.413 4.649 13.354L11.649 20.354C11.6954 20.4006 11.7506 20.4375 11.8114 20.4627C11.8721 20.4879 11.9372 20.5009 12.003 20.5009C12.0688 20.5009 12.1339 20.4879 12.1946 20.4627C12.2554 20.4375 12.3106 20.4006 12.357 20.354L19.357 13.354C20.6265 12.1865 21.3886 10.5683 21.48 8.846C21.4954 8.1428 21.3675 7.44383 21.1039 6.79171C20.8403 6.13959 20.4467 5.548 19.947 5.053Z" fill="#2F2F38"/>
</svg>
