<svg width="24" height="24" viewBox="0 0 24 24" fill="none" xmlns="http://www.w3.org/2000/svg">
<path d="M21.7069 11.293L19.7069 9.293L12.7069 2.293C12.5194 2.10553 12.2651 2.00021 11.9999 2.00021C11.7348 2.00021 11.4804 2.10553 11.2929 2.293L4.29292 9.293L2.29292 11.293C2.11076 11.4816 2.00997 11.7342 2.01224 11.9964C2.01452 12.2586 2.11969 12.5094 2.3051 12.6948C2.49051 12.8802 2.74132 12.9854 3.00352 12.9877C3.26571 12.99 3.51832 12.8892 3.70692 12.707L3.99992 12.414V20C3.99992 20.5304 4.21063 21.0391 4.58571 21.4142C4.96078 21.7893 5.46949 22 5.99992 22H8.99992C9.26514 22 9.51949 21.8946 9.70703 21.7071C9.89456 21.5196 9.99992 21.2652 9.99992 21V17C9.99992 16.7348 10.1053 16.4804 10.2928 16.2929C10.4803 16.1054 10.7347 16 10.9999 16H12.9999C13.2651 16 13.5195 16.1054 13.707 16.2929C13.8946 16.4804 13.9999 16.7348 13.9999 17V21C13.9999 21.2652 14.1053 21.5196 14.2928 21.7071C14.4803 21.8946 14.7347 22 14.9999 22H17.9999C18.5304 22 19.0391 21.7893 19.4141 21.4142C19.7892 21.0391 19.9999 20.5304 19.9999 20V12.414L20.2929 12.707C20.4815 12.8892 20.7341 12.99 20.9963 12.9877C21.2585 12.9854 21.5093 12.8802 21.6947 12.6948C21.8801 12.5094 21.9853 12.2586 21.9876 11.9964C21.9899 11.7342 21.8891 11.4816 21.7069 11.293Z" fill="#2F2F38"/>
</svg>
