<svg width="24" height="24" viewBox="0 0 24 24" fill="none" xmlns="http://www.w3.org/2000/svg">
<path d="M15.583 8.44483H15.593M10.86 19.711L4.28698 13.08C4.10208 12.894 3.99829 12.6423 3.99829 12.38C3.99829 12.1177 4.10208 11.866 4.28698 11.68L11.616 4.286C11.7072 4.19502 11.8154 4.12293 11.9345 4.07385C12.0536 4.02477 12.1812 3.99968 12.31 4L18.044 4.007C18.5652 4.01018 19.0639 4.22002 19.4306 4.59048C19.7974 4.96093 20.0021 5.46175 20 5.983V11.483C20 11.6194 19.972 11.7543 19.9176 11.8794C19.8632 12.0044 19.7837 12.117 19.684 12.21L12.245 19.71C12.1544 19.8015 12.0466 19.8742 11.9278 19.9238C11.8089 19.9735 11.6815 19.9991 11.5527 19.9992C11.4239 19.9993 11.2964 19.9738 11.1775 19.9244C11.0586 19.8749 10.9507 19.8024 10.86 19.711Z" stroke="#2F2F38" stroke-linecap="round" stroke-linejoin="round"/>
</svg>
