<svg width="24" height="24" viewBox="0 0 24 24" fill="none" xmlns="http://www.w3.org/2000/svg">
<path d="M12 12C14.4853 12 16.5 9.98528 16.5 7.5C16.5 5.01472 14.4853 3 12 3C9.51472 3 7.5 5.01472 7.5 7.5C7.5 9.98528 9.51472 12 12 12Z" fill="#2F2F38"/>
<path d="M14 13H10C8.67441 13.0016 7.40356 13.5289 6.46622 14.4662C5.52888 15.4036 5.00159 16.6744 5 18V20C5 20.2652 5.10536 20.5196 5.29289 20.7071C5.48043 20.8946 5.73478 21 6 21H18C18.2652 21 18.5196 20.8946 18.7071 20.7071C18.8946 20.5196 19 20.2652 19 20V18C18.9984 16.6744 18.4711 15.4036 17.5338 14.4662C16.5964 13.5289 15.3256 13.0016 14 13Z" fill="#2F2F38"/>
</svg>
